<svg xmlns="http://www.w3.org/2000/svg" xmlns:xlink="http://www.w3.org/1999/xlink" width="500" zoomAndPan="magnify" viewBox="0 0 375 374.999991" height="500" preserveAspectRatio="xMidYMid meet" version="1.0"><defs><clipPath id="820a757ad4"><path d="M 66.753906 64.769531 L 308.253906 64.769531 L 308.253906 310.019531 L 66.753906 310.019531 Z M 66.753906 64.769531 " clip-rule="nonzero"/></clipPath></defs><rect x="-37.5" width="450" fill="#ffffff" y="-37.499999" height="449.999989" fill-opacity="1"/><rect x="-37.5" width="450" fill="#3a4e67" y="-37.499999" height="449.999989" fill-opacity="1"/><path fill="#f9fafb" d="M 155.546875 84.5625 C 116.40625 84.5625 84.570312 116.402344 84.570312 155.539062 C 84.570312 194.679688 116.40625 226.527344 155.546875 226.527344 C 194.683594 226.527344 226.53125 194.679688 226.53125 155.539062 C 226.53125 116.402344 194.683594 84.5625 155.546875 84.5625 Z M 155.546875 221.605469 C 119.121094 221.605469 89.492188 191.96875 89.492188 155.539062 C 89.492188 119.113281 119.121094 89.488281 155.546875 89.488281 C 191.972656 89.488281 221.609375 119.113281 221.609375 155.539062 C 221.609375 191.96875 191.972656 221.605469 155.546875 221.605469 Z M 155.546875 221.605469 " fill-opacity="1" fill-rule="nonzero"/><g clip-path="url(#820a757ad4)"><path fill="#f9fafb" d="M 305.765625 279.785156 L 253.789062 227.808594 C 249.75 223.777344 244.003906 222.476562 238.867188 223.910156 L 226.757812 211.804688 C 239.378906 195.835938 246.320312 175.953125 246.320312 155.539062 C 246.320312 105.480469 205.605469 64.773438 155.546875 64.773438 C 105.488281 64.773438 64.769531 105.492188 64.769531 155.539062 C 64.769531 205.597656 105.496094 246.316406 155.546875 246.316406 C 175.957031 246.316406 195.839844 239.367188 211.796875 226.742188 L 223.90625 238.851562 C 223.539062 240.1875 223.332031 241.566406 223.332031 242.980469 C 223.332031 247.058594 224.925781 250.886719 227.800781 253.78125 L 279.78125 305.761719 C 282.765625 308.738281 286.671875 310.226562 290.582031 310.226562 C 294.496094 310.226562 298.410156 308.726562 301.382812 305.761719 L 305.765625 301.378906 C 311.71875 295.429688 311.71875 285.738281 305.765625 279.785156 Z M 210.410156 221.566406 C 195.046875 234.351562 175.550781 241.402344 155.546875 241.402344 C 108.210938 241.402344 69.691406 202.886719 69.691406 155.550781 C 69.691406 108.214844 108.210938 69.707031 155.546875 69.707031 C 202.890625 69.707031 241.398438 108.214844 241.398438 155.550781 C 241.398438 175.566406 234.355469 195.058594 221.570312 210.421875 C 218.226562 214.453125 214.46875 218.195312 210.410156 221.566406 Z M 226 233.992188 L 215.621094 223.605469 C 215.863281 223.378906 216.117188 223.15625 216.359375 222.929688 C 216.59375 222.722656 216.820312 222.515625 217.046875 222.308594 C 218.875 220.621094 220.632812 218.863281 222.3125 217.042969 C 222.527344 216.808594 222.734375 216.582031 222.941406 216.347656 C 223.167969 216.105469 223.394531 215.859375 223.609375 215.617188 L 233.996094 226.003906 L 232.203125 227.796875 L 232.203125 227.808594 L 231.21875 228.78125 Z M 231.292969 250.300781 C 227.261719 246.273438 227.261719 239.707031 231.292969 235.679688 L 234.65625 232.316406 L 235.691406 231.277344 C 237.703125 229.265625 240.34375 228.265625 243.003906 228.265625 C 245.644531 228.265625 248.304688 229.277344 250.324219 231.289062 L 251.136719 232.097656 L 232.113281 251.113281 Z M 302.285156 297.898438 L 297.90625 302.28125 C 293.875 306.3125 287.308594 306.3125 283.269531 302.28125 L 235.601562 254.601562 L 254.617188 235.578125 L 302.296875 283.257812 C 306.316406 287.304688 306.316406 293.871094 302.285156 297.898438 Z M 302.285156 297.898438 " fill-opacity="1" fill-rule="nonzero"/></g><path fill="#f9fafb" d="M 207.859375 142.847656 C 202.339844 120.078125 182.289062 102.921875 158.125 101.777344 C 156.726562 101.714844 155.546875 102.839844 155.546875 104.238281 C 155.546875 105.554688 156.582031 106.628906 157.898438 106.691406 C 179.851562 107.734375 198.046875 123.316406 203.070312 144 C 203.332031 145.089844 204.332031 145.847656 205.449219 145.847656 C 207.039062 145.855469 208.226562 144.386719 207.859375 142.847656 Z M 207.859375 142.847656 " fill-opacity="1" fill-rule="nonzero"/></svg>